<?xml version="1.0"?>
<svg width="640" height="480.00000000000006" xmlns="http://www.w3.org/2000/svg" xmlns:svg="http://www.w3.org/2000/svg">
 <!-- Created with SVG-edit - http://svg-edit.googlecode.com/ -->
 <g>
  <title>Layer 1</title>
  <line fill="none" stroke="#000000" stroke-width="5" x1="66" y1="112" x2="88" y2="113" id="svg_4"/>
  <line fill="none" stroke="#000000" stroke-width="5" x1="76" y1="71.580645" x2="57" y2="135.580645" id="svg_1"/>
  <line stroke="#000000" fill="none" stroke-width="5" x1="76" y1="71.838709" x2="94" y2="139" id="svg_3"/>
  <line fill="none" stroke-width="5" stroke-dasharray="null" stroke-linejoin="null" stroke-linecap="null" x1="106" y1="136" x2="135" y2="136" id="svg_6" stroke="#000000"/>
  <line fill="none" stroke-width="5" stroke-dasharray="null" stroke-linejoin="null" stroke-linecap="null" x1="147.5" y1="71" x2="176.5" y2="71" stroke="#000000" id="svg_11"/>
  <line fill="none" stroke-width="5" stroke-dasharray="null" stroke-linejoin="null" stroke-linecap="null" x1="145.806452" y1="67.806452" x2="145.806452" y2="135.806452" id="svg_7" stroke="#000000"/>
  <line fill="none" stroke-width="5" stroke-dasharray="null" stroke-linejoin="null" stroke-linecap="null" x1="196.888628" y1="72.612903" x2="232.271608" y2="72.612903" id="svg_8" stroke="#000000"/>
  <line fill="none" stroke-width="5" stroke-dasharray="null" stroke-linejoin="null" stroke-linecap="null" x1="146.5" y1="133" x2="175.5" y2="133" stroke="#000000" id="svg_9"/>
  <line fill="none" stroke-width="5" stroke-dasharray="null" stroke-linejoin="null" stroke-linecap="null" x1="146.5" y1="100" x2="175.5" y2="100" stroke="#000000" id="svg_12"/>
  <line stroke="#000000" fill="none" stroke-width="5" stroke-dasharray="null" stroke-linejoin="null" stroke-linecap="null" x1="253" y1="73.03226" x2="237" y2="139" id="svg_16"/>
  <line stroke="#000000" fill="none" stroke-width="5" stroke-dasharray="null" stroke-linejoin="null" stroke-linecap="null" x1="254" y1="72.612902" x2="273" y2="137" id="svg_17"/>
  <line fill="none" stroke="#000000" stroke-width="5" x1="242" y1="111.5" x2="264" y2="112.5" id="svg_18"/>
  <line fill="none" stroke="#000000" stroke-width="5" stroke-dasharray="null" stroke-linejoin="null" stroke-linecap="null" x1="285" y1="73" x2="285" y2="137" id="svg_19"/>
  <line fill="none" stroke="#000000" stroke-width="5" stroke-dasharray="null" stroke-linejoin="null" stroke-linecap="null" x1="317.129032" y1="72.193548" x2="317.129032" y2="136.193548" id="svg_20"/>
  <line stroke="#000000" fill="none" stroke-width="5" stroke-dasharray="null" stroke-linejoin="null" stroke-linecap="null" x1="283" y1="75" x2="315.935484" y2="131" id="svg_22"/>
  <path fill="none" stroke="#000000" stroke-width="5" stroke-dasharray="null" stroke-linejoin="null" stroke-linecap="null" d="m328.973772,72.76019l0,64" id="svg_27"/>
  <ellipse stroke="#000000" fill="none" stroke-width="5" stroke-dasharray="null" stroke-linejoin="null" stroke-linecap="null" cx="407.967738" cy="106.43549" id="svg_31" rx="13.548386" ry="29.75806"/>
  <path fill="none" stroke="#000000" stroke-width="5" stroke-dasharray="null" stroke-linejoin="null" stroke-linecap="null" d="m365.774193,73l0,64" id="svg_32"/>
  <line fill="none" stroke-width="5" stroke-dasharray="null" stroke-linejoin="null" stroke-linecap="null" x1="60" y1="173.612903" x2="98" y2="173.612903" id="svg_33" stroke="#000000"/>
  <line fill="none" stroke-width="5" stroke-dasharray="null" stroke-linejoin="null" stroke-linecap="null" x1="62.5" y1="227" x2="99.5" y2="227" id="svg_34" stroke="#000000"/>
  <line fill="none" stroke-width="5" stroke-dasharray="null" stroke-linejoin="null" stroke-linecap="null" x1="97" y1="174" x2="64" y2="225" id="svg_36" stroke="#000000"/>
  <line stroke="#000000" fill="none" stroke-width="5" stroke-dasharray="null" stroke-linejoin="null" stroke-linecap="null" x1="111.58282" y1="229.12614" x2="124.42288" y2="175.320586" id="svg_37"/>
  <line stroke="#000000" id="svg_21" y2="228.87095" x2="145.4839" y1="175.645146" x1="126.12906" stroke-linecap="null" stroke-linejoin="null" stroke-dasharray="null" stroke-width="5" fill="none"/>
  <line id="svg_23" fill="none" stroke="#000000" stroke-width="5" x1="115.93547" y1="209.82258" x2="137.93547" y2="210.82258"/>
  <line id="svg_25" y2="228.0645" x2="160.80648" y1="173.22579" x1="169.67744" stroke-linecap="null" stroke-linejoin="null" stroke-dasharray="null" stroke-width="5" stroke="#000000" fill="none"/>
  <line stroke="#000000" id="svg_26" y2="199.8387" x2="179.35486" y1="176.4516" x1="170.4839" stroke-linecap="null" stroke-linejoin="null" stroke-dasharray="null" stroke-width="5" fill="none"/>
  <line stroke="#000000" id="svg_28" y2="174.83869" x2="195.4839" y1="202.25805" x1="180.16132" stroke-linecap="null" stroke-linejoin="null" stroke-dasharray="null" stroke-width="5" fill="none"/>
  <line stroke="#000000" id="svg_29" y2="228.87097" x2="201.53227" y1="173.22581" x1="196.69354" stroke-linecap="null" stroke-linejoin="null" stroke-dasharray="null" stroke-width="5" fill="none"/>
  <path id="svg_38" d="m220.650856,174.213941c1.2865,0 2.18225,0 3.03445,0c0.71976,0 1.70749,0 2.66312,0c0.95566,0 1.80484,0 2.59598,0c1.02362,0 1.8114,0 2.78256,0c0.89969,0 1.71597,0.31358 2.46985,0.46802c0.95157,0.19494 1.37186,0.62297 1.95303,1.32604c0.52127,0.6306 1.4238,0.89084 2.10181,1.34913c0.75299,0.50898 0.97678,1.3293 1.64456,1.99312c0.57736,0.57394 1.32367,0.97243 1.64749,1.7435c0.3475,0.82742 0.70648,1.5459 0.88135,2.29328c0.20914,0.89382 0.45361,1.72954 0.45361,2.66768c0,0.93394 0,1.82526 0,2.7613c0,0.89382 0.04239,1.83264 0,2.66145c-0.05026,0.9831 -0.64954,1.70395 -0.90726,2.39311c-0.30887,0.82599 -0.75806,1.50632 -0.90726,2.41808c-0.14709,0.89897 -0.31396,1.66699 -0.74728,2.42673c-0.44263,0.77605 -0.8681,1.28368 -1.38681,2.00616c-0.52905,0.7369 -1.36765,0.77287 -2.20441,1.12214c-0.77374,0.32295 -1.0242,1.36074 -1.75647,1.83837c-0.6528,0.42581 -1.32669,0.94565 -2.10846,1.28797c-0.80881,0.35417 -1.75217,0.20629 -2.52164,0.43587c-0.82376,0.24577 -1.66855,0.35139 -2.52151,0.59314c-0.77853,0.22065 -1.73264,0.03994 -2.57782,0.03994l-0.95013,0l-0.91699,0l-0.81653,0" stroke-linecap="null" stroke-linejoin="null" stroke-dasharray="null" stroke-width="5" fill="none" stroke="#000000"/>
  <path stroke="#000000" id="svg_30" fill="none" stroke-width="5" stroke-dasharray="null" stroke-linejoin="null" stroke-linecap="null" d="m221.29032,172.596773l0,58.64516"/>
  <path d="m259.59676,172.95108c1.2865,0 2.18225,0 3.03445,0c0.71976,0 1.70749,0 2.66312,0c0.95566,0 1.80484,0 2.59598,0c1.02362,0 1.8114,0 2.78256,0c0.89969,0 1.71597,0.31358 2.46985,0.46802c0.95157,0.19494 1.37186,0.62297 1.95303,1.32604c0.52127,0.6306 1.4238,0.89084 2.10181,1.34913c0.75299,0.50898 0.97678,1.3293 1.64456,1.99312c0.57736,0.57394 1.32367,0.97243 1.64749,1.7435c0.3475,0.82742 0.70648,1.5459 0.88135,2.29328c0.20914,0.89382 0.45361,1.72954 0.45361,2.66768c0,0.93394 0,1.82526 0,2.7613c0,0.89382 0.04239,1.83264 0,2.66145c-0.05026,0.9831 -0.64954,1.70395 -0.90726,2.39311c-0.30887,0.82599 -0.75806,1.50632 -0.90726,2.41808c-0.14709,0.89897 -0.31396,1.66699 -0.74728,2.42673c-0.44263,0.77605 -0.8681,1.28368 -1.38681,2.00616c-0.52905,0.7369 -1.36765,0.77287 -2.20441,1.12214c-0.77374,0.32295 -1.0242,1.36074 -1.75647,1.83837c-0.6528,0.42581 -1.32669,0.94565 -2.10846,1.28797c-0.80881,0.35417 -1.75217,0.20629 -2.52164,0.43587c-0.82376,0.24577 -1.66855,0.35139 -2.52151,0.59314c-0.77853,0.22065 -1.73264,0.03994 -2.57782,0.03994l-0.95013,0l-0.91699,0l-0.81653,0" id="svg_58" stroke-linecap="null" stroke-linejoin="null" stroke-dasharray="null" stroke-width="5" fill="none" stroke="#000000"/>
  <line stroke="#000000" id="svg_51" y2="229.6774" x2="259.19357" y1="170.80643" x1="259.19357" stroke-linecap="null" stroke-linejoin="null" stroke-dasharray="null" stroke-width="5" fill="none"/>
  <line id="svg_54" y2="228.0645" x2="282.58068" y1="206.2903" x1="263.22584" stroke-linecap="null" stroke-linejoin="null" stroke-dasharray="null" stroke-width="5" stroke="#000000" fill="none"/>
  <line id="svg_59" y2="228.87095" x2="293.06455" y1="174.03224" x1="305.96778" stroke-linecap="null" stroke-linejoin="null" stroke-dasharray="null" stroke-width="5" stroke="#000000" fill="none"/>
  <line id="svg_60" y2="228.87095" x2="322.09681" y1="177.25804" x1="305.16132" stroke-linecap="null" stroke-linejoin="null" stroke-dasharray="null" stroke-width="5" stroke="#000000" fill="none"/>
  <line id="svg_61" y2="208.70966" x2="315.64519" y1="208.70966" x1="297.90326" stroke-linecap="null" stroke-linejoin="null" stroke-dasharray="null" stroke-width="5" stroke="#000000" fill="none"/>
  <line stroke="#000000" id="svg_63" y2="229.6774" x2="330.16132" y1="174.03224" x1="330.96777" stroke-linecap="null" stroke-linejoin="null" stroke-dasharray="null" stroke-width="5" fill="none"/>
  <line id="svg_64" stroke="#000000" y2="229.2742" x2="366.04838" y1="173.62903" x1="366.85483" stroke-linecap="null" stroke-linejoin="null" stroke-dasharray="null" stroke-width="5" fill="none"/>
  <ellipse id="svg_68" fill="none" stroke-width="5" stroke-dasharray="null" stroke-linejoin="null" stroke-linecap="null" cx="396.26759" cy="202.02676" rx="16.58064" ry="27.5" stroke="#000000"/>
  <line stroke="#000000" id="svg_75" y2="136.93546" x2="384.193583" y1="108.709654" x1="371.290356" stroke-linecap="null" stroke-linejoin="null" stroke-dasharray="null" stroke-width="5" fill="none"/>
  <path fill="none" stroke="#000000" stroke-width="5" stroke-dasharray="null" stroke-linejoin="null" stroke-linecap="null" id="svg_39" d="m216.25877,74.824313c0.18753,0.97516 0.08952,1.84315 0.18753,2.73793c0.09433,0.86111 0.26865,1.72894 0.18753,2.62541c-0.07845,0.86698 -0.18753,1.72527 -0.18753,2.61057c0,0.89623 0,1.79634 0,2.68401c0,0.87514 0,1.77252 0,2.67542c0,0.86263 0.09306,1.74557 0.18753,2.5168c0.10863,0.88686 0,1.79637 0,2.68401c0,0.87514 0,1.7654 0,2.65266c0,0.87736 0,1.76878 0,2.66692c0,0.89539 0,1.78153 0,2.64317c0,0.91989 0.093,1.78841 -0.01071,2.6907c-0.09375,0.8155 -0.17682,1.67773 -0.17682,2.57c0,0.89401 -0.10239,1.78478 0,2.67279c0.09439,0.8186 0.24438,1.64744 0.37506,2.54415c0.1254,0.86047 0.21202,1.73662 0.028,2.55939c-0.19037,0.85112 -0.21553,1.72252 -0.21553,2.59503c0,0.88751 0,1.78641 0,2.65779c0,0.89539 0.08414,1.78807 -0.01071,2.6662c-0.09207,0.85241 -0.3764,1.69821 -0.55188,2.52636c-0.17676,0.8342 -0.27559,1.61555 -0.37505,2.50611c-0.09435,0.84486 -0.0916,1.66868 -0.5665,2.363c-0.44142,0.64539 -1.07956,1.1431 -1.6306,1.74792c-0.53569,0.58798 -0.53659,1.49715 -1.00078,2.15559c-0.48611,0.68956 -1.3631,0.88239 -2.23499,0.88239c-0.91188,0 -1.81566,0 -2.69917,0c-0.88814,0 -1.77428,0 -2.65392,0c-0.89713,0 -1.80078,0.0153 -2.65366,-0.18753c-0.79491,-0.18904 -1.64162,-0.41875 -2.45889,-0.74536c-0.76183,-0.30444 -1.65041,-0.60323 -2.45288,-0.9799c-0.77223,-0.36249 -1.3167,-1.06619 -1.78052,-1.80504c-0.47404,-0.75511 -0.65109,-1.65529 -0.96124,-2.47454c-0.30946,-0.81744 -0.32933,-1.76736 -0.84779,-2.46523c-0.4949,-0.66615 -0.88646,-1.42923 -1.12518,-2.21909c-0.24806,-0.82079 -0.19791,-1.75426 -0.38181,-2.5919c-0.18669,-0.85037 -0.55154,-1.66508 -0.74336,-2.53162c-0.18878,-0.85287 0.09979,-1.76356 -0.00026,-2.6562c-0.09422,-0.84055 -0.18727,-1.72717 -0.18727,-2.62816c0,-0.84288 -0.12344,-1.73904 -0.31255,-2.5629c-0.19308,-0.84124 -0.06252,-1.76228 -0.06252,-2.65041c0,-0.86013 0,-1.76553 0,-2.66291l0,-0.88165"/>
  <line fill="none" stroke="#000000" stroke-width="5" stroke-dasharray="null" stroke-linejoin="null" stroke-linecap="null" x1="331.77422" y1="177.25805" x2="364.83874" y2="227.25805" id="svg_40"/>
  <path fill="none" stroke-width="5" stroke-dasharray="null" stroke-linejoin="null" stroke-linecap="null" id="svg_41" d="m329.776411,75.39569c1.01669,0 1.84906,0.27379 2.68585,0.44579c0.88882,0.18269 1.73779,0.2012 2.65628,0.25785c0.8392,0.05175 1.77512,-0.05819 2.67148,0c0.90524,0.05876 1.77463,0.18643 2.58365,0.4406c0.8667,0.27229 1.72867,0.44386 2.41043,0.91599c0.67722,0.46898 1.4054,0.75449 2.14691,1.15849c0.71262,0.38826 1.19376,1.12745 1.68509,1.84741c0.48334,0.70824 1.2139,1.20798 1.66785,1.84724c0.48541,0.68353 0.70605,1.53621 1.18088,2.2066c0.47806,0.67497 0.77072,1.31983 1.05484,2.14779c0.27252,0.79418 0.82199,1.45737 1.37906,2.04256c0.57156,0.60042 1.01871,1.34505 1.46283,2.09968c0.4458,0.75749 0.56686,1.61583 0.66956,2.47202c0.10318,0.86005 0.14563,1.71987 0.20575,2.53306c0.0643,0.86986 -0.09024,1.74655 0,2.6053c0.09039,0.86034 0.67566,1.65648 0.47961,2.50132c-0.01691,0.0729 -0.23981,0.90204 -0.23981,1.76736c0,0.86783 0.05991,1.7278 0.1199,2.59561c0.05981,0.86489 0.02945,1.73905 -0.07764,2.56434c-0.11163,0.8604 -0.60202,1.52304 -0.93259,2.29398c-0.33881,0.79011 -0.21945,1.74163 -0.61743,2.50117c-0.36157,0.69007 -0.76663,1.38623 -0.94135,2.21017c-0.17548,0.82752 -0.4881,1.62737 -0.91074,2.35782c-0.42374,0.73236 -0.91858,1.42871 -1.36008,2.19403c-0.41589,0.72095 -0.36151,1.56556 -0.81567,2.29648c-0.46198,0.7435 -1.40555,1.09342 -1.89847,1.81771c-0.48193,0.70812 -1.02011,1.30855 -1.6387,1.8568c-0.66043,0.58532 -1.06064,1.32852 -1.61871,1.97407c-0.53986,0.62448 -1.16937,1.15682 -1.81854,1.73952c-0.57715,0.51805 -1.48563,0.71267 -2.0983,1.21181c-0.64899,0.5287 -1.21683,1.18859 -1.95844,1.62226c-0.76309,0.44625 -1.61334,0.6899 -2.37189,1.13145c-0.74326,0.43265 -1.49304,0.85216 -2.36725,0.86888l-0.87381,0.13652l-0.83676,0.0913l-0.87198,0" stroke="#000000"/>
  <line id="svg_5" y2="135.322563" x2="108.38712" y1="70.806432" x1="109.193571" stroke-linecap="null" stroke-linejoin="null" stroke-dasharray="null" stroke-width="5" stroke="#000000" fill="none"/>
  <path id="svg_10" d="m365.81215,75.82684c1.2865,0 2.18225,0 3.03445,0c0.71976,0 1.70749,0 2.66312,0c0.95566,0 1.80484,0 2.59598,0c1.02362,0 1.8114,0 2.78256,0c0.89969,0 1.71597,0.31358 2.46985,0.46802c0.95157,0.19494 1.37186,0.62297 1.95303,1.32604c0.52127,0.6306 1.4238,0.89084 2.10181,1.34913c0.75299,0.50898 0.97678,1.3293 1.64456,1.99312c0.57736,0.57394 1.32367,0.97243 1.64749,1.7435c0.3475,0.82742 0.70648,1.5459 0.88135,2.29328c0.20914,0.89382 0.45361,1.72954 0.45361,2.66768c0,0.93394 0,1.82526 0,2.7613c0,0.89382 0.04239,1.83264 0,2.66145c-0.05026,0.9831 -0.64954,1.70395 -0.90726,2.39311c-0.30887,0.82599 -0.75806,1.50632 -0.90726,2.41808c-0.14709,0.89897 -0.31396,1.66699 -0.74728,2.42673c-0.44263,0.77605 -0.8681,1.28368 -1.38681,2.00616c-0.52905,0.7369 -1.36765,0.77287 -2.20441,1.12214c-0.77374,0.32295 -1.0242,1.36074 -1.75647,1.83837c-0.6528,0.42581 -1.32669,0.94565 -2.10846,1.28797c-0.80881,0.35417 -1.75217,0.20629 -2.52164,0.43587c-0.82376,0.24577 -1.66855,0.35139 -2.52151,0.59314c-0.77853,0.22065 -1.73264,0.03994 -2.57782,0.03994l-0.95013,0l-0.91699,0l-0.81653,0" stroke-linecap="null" stroke-linejoin="null" stroke-dasharray="null" stroke-width="5" fill="none" stroke="#000000"/>
  <rect stroke="#000000" id="svg_24" height="0.806452" width="0" y="36.935463" x="68.87099" stroke-linecap="null" stroke-linejoin="null" stroke-dasharray="null" stroke-width="5" fill="none"/>
  <rect stroke="#000000" id="svg_35" height="13.709679" width="387.903228" y="47.419334" x="42.258084" stroke-linecap="null" stroke-linejoin="null" stroke-dasharray="null" stroke-width="5" fill="#007fff"/>
  <path stroke="#000000" id="svg_42" d="m221.457309,204.052656c1.2865,0 2.18225,0 3.03445,0c0.71976,0 1.70749,0 2.66312,0c0.95566,0 1.80484,0 2.59598,0c1.02362,0 1.8114,0 2.78256,0c0.89969,0 1.71597,0.242221 2.46985,0.361516c0.95157,0.150579 1.37186,0.481205 1.95303,1.024282c0.52127,0.487099 1.4238,0.688117 2.10181,1.042117c0.75299,0.393155 0.97678,1.0268 1.64456,1.539559c0.57736,0.443332 1.32367,0.751141 1.64749,1.346743c0.3475,0.63913 0.70648,1.19411 0.88135,1.771414c0.20914,0.690419 0.45361,1.33596 0.45361,2.060614c0,0.72141 0,1.409898 0,2.132929c0,0.690419 0.04239,1.415598 0,2.055802c-0.05026,0.759382 -0.64954,1.316193 -0.90726,1.848526c-0.30887,0.638025 -0.75806,1.163537 -0.90726,1.867814c-0.14709,0.694397 -0.31396,1.287644 -0.74728,1.874495c-0.44263,0.599449 -0.8681,0.991562 -1.38681,1.549632c-0.52905,0.569209 -1.36765,0.596993 -2.20441,0.866782c-0.77374,0.249458 -1.0242,1.051085 -1.75647,1.420024c-0.6528,0.328911 -1.32669,0.730455 -2.10846,0.994875c-0.80881,0.273574 -1.75217,0.159346 -2.52164,0.336682c-0.82376,0.189842 -1.66855,0.271427 -2.52151,0.458163c-0.77853,0.170438 -1.73264,0.030851 -2.57782,0.030851l-0.95013,0l-0.91699,0l-0.81653,0" stroke-linecap="null" stroke-linejoin="null" stroke-dasharray="null" stroke-width="5" fill="none"/>
  <ellipse stroke="#000000" ry="5.645162" rx="180.668883" id="svg_53" cy="242.580632" cx="238.202102" stroke-linecap="null" stroke-linejoin="null" stroke-dasharray="null" stroke-width="5" fill="#007fff"/>
 </g>
</svg>